<?xml version="1.0" encoding="utf-8"?>
<!-- Generator: Adobe Illustrator 22.0.1, SVG Export Plug-In . SVG Version: 6.00 Build 0)  -->
<svg version="1.1" id="Layer_1" xmlns="http://www.w3.org/2000/svg" xmlns:xlink="http://www.w3.org/1999/xlink" x="0px" y="0px"
	 viewBox="0 0 438.9 66.3" style="enable-background:new 0 0 438.9 66.3;" xml:space="preserve">
<style type="text/css">
	.st0{fill:url(#SVGID_1_);}
	.st1{opacity:0.7;fill:url(#SVGID_2_);enable-background:new    ;}
	.st2{fill:none;stroke:url(#SVGID_3_);stroke-width:7.000000e-02;stroke-miterlimit:10;}
	.st3{fill:url(#SVGID_4_);}
	.st4{fill:#FFFFFF;}
</style>
<title>Asset 3</title>
<path d="M246,26c0,0.9-0.2,1.7-0.5,2.5c-0.3,0.7-0.8,1.3-1.5,1.8c-0.6,0.5-1.3,0.9-2.1,1.1c-0.8,0.3-1.7,0.4-2.5,0.4h-5.9V43h-0.7
	V20.4h6.2c0.8,0,1.7,0.1,2.5,0.3c0.8,0.2,1.6,0.5,2.3,0.9s1.2,1,1.6,1.7C245.8,24.1,246,25,246,26z M245.3,26c0-0.8-0.2-1.7-0.5-2.4
	c-0.3-0.6-0.8-1.1-1.4-1.5c-0.6-0.4-1.2-0.7-1.9-0.8c-0.7-0.2-1.4-0.3-2.1-0.3h-5.7v10.3h5.9c0.7,0,1.4-0.1,2.1-0.3
	c0.7-0.2,1.3-0.5,1.9-0.9c0.6-0.4,1-1,1.3-1.6C245.1,27.6,245.3,26.8,245.3,26L245.3,26z"/>
<path d="M251.4,28.9c0.9-0.6,1.9-1,3-1h0.3h0.3v0.6c-0.1,0-0.2,0-0.2,0h-0.2c-0.8,0-1.7,0.2-2.4,0.6s-1.2,1-1.6,1.6
	c-0.4,0.7-0.8,1.4-0.9,2.2c-0.2,0.8-0.3,1.6-0.3,2.5V43h-0.7V32c0-0.2,0-0.5,0-0.9v-1c0-0.4,0-0.7,0-1s0-0.6-0.1-0.8h0.7
	c0,0.2,0,0.5,0,0.8s0,0.7,0,1s0,0.7,0,1.1s0,0.7,0,0.9h0.1C249.6,30.9,250.4,29.7,251.4,28.9z"/>
<path d="M271.2,35.6c0,1.1-0.2,2.2-0.6,3.2c-0.7,1.9-2.1,3.4-4,4.1c-1,0.4-2.1,0.6-3.1,0.6c-1.1,0-2.1-0.2-3.1-0.6
	c-1.8-0.7-3.3-2.2-4-4.1c-0.4-1-0.6-2.1-0.6-3.2c0-1.1,0.2-2.1,0.6-3.2c0.3-0.9,0.9-1.8,1.5-2.5c0.7-0.7,1.5-1.2,2.4-1.6
	c1-0.4,2-0.6,3.1-0.6s2.1,0.2,3.1,0.6c0.9,0.4,1.7,0.9,2.4,1.6c0.7,0.7,1.2,1.5,1.6,2.5C271,33.5,271.2,34.5,271.2,35.6z
	 M270.5,35.6c0-0.9-0.2-1.9-0.5-2.8c-0.3-0.8-0.8-1.6-1.4-2.3c-0.6-0.7-1.4-1.2-2.2-1.6c-0.9-0.4-1.9-0.6-2.9-0.6s-2,0.2-2.9,0.6
	c-0.8,0.4-1.6,0.9-2.2,1.5c-0.6,0.7-1.1,1.4-1.4,2.3s-0.5,1.8-0.5,2.8s0.2,1.9,0.5,2.8c0.3,0.8,0.8,1.6,1.4,2.3s1.4,1.2,2.2,1.5
	c0.9,0.4,1.9,0.6,2.9,0.6s2-0.2,2.9-0.6c1.7-0.7,3-2.1,3.6-3.8C270.3,37.5,270.5,36.6,270.5,35.6L270.5,35.6z"/>
<path d="M329.6,43l-2.7-6.5h-13.1L311,43h-0.8l9.8-22.7h0.9l9.4,22.7H329.6z M320.5,20.8L314,35.9h12.7L320.5,20.8z"/>
<path d="M345.5,18.9h0.7V43h-0.7v-4h-0.1c-1.1,2.7-3.7,4.4-6.6,4.4c-1,0-2.1-0.2-3-0.6c-0.9-0.4-1.7-0.9-2.3-1.6
	c-0.6-0.7-1.1-1.5-1.4-2.4c-0.4-1-0.6-2-0.5-3.1c0-1.1,0.2-2.1,0.5-3.1c0.3-0.9,0.9-1.8,1.5-2.5c0.7-0.7,1.5-1.3,2.3-1.6
	c0.9-0.4,2-0.6,3-0.6c2.9,0,5.6,1.7,6.6,4.4h0.1L345.5,18.9z M332.1,35.7c0,0.9,0.2,1.9,0.5,2.8c0.3,0.8,0.7,1.6,1.3,2.3
	c0.6,0.7,1.3,1.2,2.1,1.5c0.9,0.4,1.8,0.6,2.8,0.6c0.9,0,1.9-0.2,2.7-0.6c0.8-0.4,1.5-0.9,2.1-1.5c0.6-0.7,1.1-1.4,1.4-2.3
	c0.7-1.8,0.7-3.8,0-5.6c-0.3-0.8-0.8-1.6-1.4-2.3c-0.6-0.7-1.3-1.2-2.1-1.5c-1.7-0.8-3.7-0.8-5.5,0c-0.8,0.4-1.5,0.9-2.1,1.6
	s-1,1.5-1.3,2.3C332.3,33.8,332.1,34.8,332.1,35.7z"/>
<path d="M355.8,43h-0.9l-5.8-14.7h0.8l5.5,14h0.1l5.3-14h0.8L355.8,43z"/>
<path d="M374.3,39.7c0,0.6,0,1.1,0.1,1.8c0,0.6,0.1,1.2,0.2,1.5h-0.7c-0.1-0.3-0.1-0.5-0.1-0.8s0-0.6-0.1-1s-0.1-0.7-0.1-1
	s0-0.6,0-0.8h-0.1c-0.3,1.2-1.1,2.3-2.2,3c-1,0.6-2.2,1-3.4,1c-0.6,0-1.2-0.1-1.8-0.3c-0.6-0.2-1.1-0.4-1.6-0.8
	c-0.5-0.3-0.9-0.8-1.1-1.3c-0.3-0.6-0.4-1.2-0.4-1.9c0-0.9,0.2-1.8,0.8-2.5c0.5-0.6,1.2-1.2,2-1.5c0.8-0.4,1.7-0.6,2.6-0.7
	c0.8-0.1,1.7-0.1,2.5-0.1h2.6v-1.2c0.1-1.3-0.4-2.7-1.3-3.6c-1-0.8-2.2-1.2-3.4-1.1c-0.8,0-1.7,0.2-2.5,0.5c-0.7,0.3-1.4,0.7-2,1.3
	l-0.4-0.5c0.7-0.6,1.5-1.1,2.3-1.4s1.7-0.5,2.5-0.5c1.4-0.1,2.9,0.4,4,1.3c1.1,1.1,1.6,2.6,1.5,4.1L374.3,39.7z M373.6,35h-2.3
	c-0.9,0-1.7,0-2.6,0.1c-0.8,0.1-1.7,0.3-2.5,0.6c-0.7,0.3-1.3,0.7-1.9,1.3c-0.5,0.6-0.8,1.4-0.7,2.2c0,0.6,0.1,1.2,0.4,1.7
	c0.2,0.4,0.6,0.8,1,1.1s0.9,0.5,1.4,0.6s0.9,0.2,1.4,0.2c0.9,0,1.9-0.2,2.7-0.6c0.7-0.4,1.3-0.9,1.7-1.5c0.4-0.6,0.7-1.3,0.9-2.1
	c0.2-0.7,0.3-1.5,0.3-2.2L373.6,35z"/>
<path d="M379.9,30.4c0.4-0.5,0.9-1,1.4-1.4s1.1-0.7,1.7-0.9c0.6-0.2,1.2-0.3,1.9-0.3c0.9,0,1.8,0.2,2.6,0.5c0.7,0.3,1.2,0.8,1.6,1.5
	c0.4,0.6,0.7,1.3,0.9,2c0.2,0.7,0.3,1.5,0.3,2.3V43h-0.7v-8.8c0-0.6-0.1-1.3-0.2-1.9c-0.1-0.7-0.4-1.3-0.7-1.9
	c-0.4-0.6-0.9-1.1-1.4-1.4c-0.7-0.4-1.5-0.6-2.3-0.6c-1.6,0-3.1,0.7-4.1,1.9c-0.6,0.7-1,1.4-1.2,2.3c-0.3,1-0.5,2-0.5,3V43h-0.7V32
	c0-0.2,0-0.5,0-0.9v-1c0-0.4,0-0.7,0-1s0-0.6-0.1-0.8h0.7c0,0.2,0,0.5,0,0.8s0,0.7,0,1s0,0.7,0,1.1s0,0.7,0,0.9h0.1
	C379.2,31.5,379.5,30.9,379.9,30.4z"/>
<path d="M405,30.3c-1.1-1.2-2.7-1.8-4.3-1.8c-1,0-1.9,0.2-2.8,0.6c-0.8,0.4-1.5,0.9-2.1,1.6s-1.1,1.5-1.4,2.3
	c-0.6,1.8-0.6,3.7,0,5.5c0.3,0.8,0.8,1.6,1.4,2.3s1.4,1.2,2.2,1.6c0.9,0.4,1.8,0.6,2.8,0.6c0.8,0,1.6-0.1,2.4-0.4
	c0.7-0.3,1.4-0.7,2-1.2l0.5,0.5c-0.6,0.6-1.4,1.1-2.3,1.4c-0.9,0.3-1.7,0.4-2.6,0.4c-1,0-2-0.2-3-0.6c-0.9-0.4-1.7-0.9-2.4-1.6
	c-0.7-0.7-1.2-1.5-1.6-2.5c-0.7-2-0.7-4.2,0-6.3c0.7-1.8,2.1-3.3,3.9-4.1c0.9-0.4,2-0.6,3-0.6c0.9,0,1.8,0.2,2.7,0.5
	c0.8,0.3,1.5,0.8,2.2,1.4L405,30.3z"/>
<path d="M408.5,35.5c0,0.9,0.1,1.8,0.4,2.7s0.7,1.6,1.2,2.3c0.6,0.7,1.3,1.3,2.1,1.7c0.9,0.4,1.9,0.7,2.9,0.6c1.1,0,2.1-0.2,3.1-0.7
	c0.9-0.5,1.7-1.2,2.3-2l0.5,0.5c-1.4,1.9-3.6,3-5.9,2.9c-1,0-2.1-0.2-3-0.6c-0.9-0.4-1.7-0.9-2.3-1.7c-0.7-0.7-1.2-1.6-1.5-2.5
	c-0.4-1-0.5-2.1-0.5-3.2c0-1,0.2-2.1,0.5-3.1c0.3-0.9,0.9-1.7,1.5-2.5c0.6-0.7,1.4-1.2,2.2-1.6c0.9-0.4,1.8-0.6,2.8-0.6
	s2.1,0.2,3,0.6c0.8,0.4,1.5,0.9,2.1,1.6s1,1.4,1.3,2.3c0.3,0.8,0.4,1.7,0.4,2.6v0.6L408.5,35.5z M421,34.9c0-0.9-0.2-1.8-0.5-2.6
	c-0.3-0.7-0.7-1.4-1.3-2c-0.5-0.6-1.2-1-1.9-1.3c-0.8-0.3-1.6-0.5-2.5-0.5c-1,0-2,0.2-2.9,0.7c-0.8,0.4-1.4,1-1.9,1.7
	c-0.5,0.6-0.9,1.4-1.1,2.1c-0.2,0.6-0.3,1.3-0.4,1.9L421,34.9z"/>
<path d="M438.1,18.9h0.7V43h-0.7v-4H438c-1.1,2.7-3.7,4.4-6.6,4.4c-1,0-2.1-0.2-3-0.6c-0.9-0.4-1.7-0.9-2.3-1.6
	c-0.7-0.7-1.2-1.5-1.5-2.5c-0.4-1-0.6-2-0.5-3.1c0-1.1,0.2-2.1,0.5-3.1c0.3-0.9,0.9-1.8,1.5-2.5c0.7-0.7,1.5-1.3,2.3-1.6
	c0.9-0.4,2-0.6,3-0.6c2.9,0,5.6,1.8,6.6,4.5h0.1V18.9z M424.8,35.7c0,0.9,0.2,1.9,0.5,2.8c0.3,0.8,0.7,1.6,1.3,2.3
	c0.6,0.7,1.3,1.2,2.1,1.5c0.9,0.4,1.8,0.6,2.8,0.6c0.9,0,1.9-0.2,2.7-0.6c0.8-0.4,1.5-0.9,2.1-1.5c0.6-0.7,1.1-1.4,1.4-2.3
	c0.7-1.8,0.7-3.8,0-5.6c-0.3-0.8-0.8-1.6-1.4-2.3c-0.6-0.7-1.3-1.2-2.1-1.5c-1.7-0.8-3.7-0.8-5.5,0c-0.8,0.4-1.5,0.9-2.1,1.6
	s-1,1.5-1.3,2.3C424.9,33.8,424.8,34.8,424.8,35.7z"/>
<path d="M91.2,43h-2.3V20.4h13.7v2H91.2v7.8h10.6v2H91.2V43z"/>
<path d="M108.8,22.3c0,0.4-0.2,0.8-0.5,1.1c-0.6,0.6-1.5,0.6-2.1,0s-0.6-1.5-0.1-2.1c0,0,0-0.1,0.1-0.1c0.6-0.6,1.5-0.6,2.1,0
	C108.7,21.4,108.8,21.9,108.8,22.3z M108.4,43h-2.2V28h2.2V43z"/>
<path d="M115.4,43h-2.2V18.8h2.2V43z"/>
<path d="M134.1,35.1v0.5c0,0.2,0,0.4,0,0.5h-12.4c0,0.7,0.2,1.4,0.4,2.1c0.3,0.6,0.7,1.2,1.2,1.7s1.1,0.9,1.7,1.2
	c1.7,0.7,3.5,0.6,5.1-0.3c0.7-0.4,1.4-1,1.9-1.8l1.6,1.3c-0.8,1-1.8,1.9-3,2.4c-1.1,0.5-2.3,0.7-3.5,0.7c-1.1,0-2.1-0.2-3.1-0.6
	c-0.9-0.4-1.8-0.9-2.4-1.7c-0.7-0.7-1.2-1.6-1.6-2.5c-0.4-1-0.6-2.1-0.6-3.1c0-1.1,0.2-2.1,0.6-3.1c0.4-0.9,0.9-1.8,1.6-2.5
	s1.5-1.3,2.4-1.6c0.9-0.4,2-0.6,3-0.6c1.1,0,2.1,0.2,3.1,0.6c0.9,0.4,1.6,0.9,2.2,1.6c0.6,0.7,1.1,1.5,1.4,2.3
	C133.9,33.1,134.1,34.1,134.1,35.1z M131.8,34.4c0-1.3-0.5-2.5-1.4-3.5s-2.3-1.5-3.6-1.4c-0.7,0-1.4,0.1-2,0.4s-1.2,0.6-1.6,1.1
	c-0.5,0.5-0.8,1-1.1,1.6c-0.3,0.6-0.4,1.2-0.5,1.8H131.8z"/>
<path d="M149.2,39.1L149.2,39.1l7.6-18.8h3.5V43H158V23.3h-0.1L149.8,43h-1.2l-8.2-19.7h-0.1V43H138V20.4h3.5L149.2,39.1z"/>
<path d="M174.8,33.3c0.1-1.1-0.3-2.1-1-2.9c-0.8-0.7-1.9-1.1-3-1c-0.9,0-1.7,0.2-2.5,0.5c-0.7,0.3-1.4,0.7-2,1.3l-1.2-1.4
	c0.7-0.7,1.5-1.2,2.4-1.5c1.1-0.4,2.3-0.6,3.4-0.6c0.8,0,1.5,0.1,2.3,0.3c0.7,0.2,1.3,0.5,1.9,1c0.5,0.5,1,1,1.2,1.7
	c0.3,0.8,0.5,1.6,0.4,2.4v6.6c0,0.6,0,1.2,0.1,1.8c0,0.5,0.1,1.1,0.2,1.6h-2c-0.1-0.4-0.1-0.8-0.2-1.2c0-0.4-0.1-0.8-0.1-1.2h-0.1
	c-0.6,0.9-1.4,1.6-2.3,2.2c-1,0.5-2,0.7-3.1,0.7c-0.6,0-1.2-0.1-1.8-0.2c-0.6-0.2-1.2-0.4-1.7-0.8c-0.5-0.4-0.9-0.8-1.1-1.3
	c-0.4-0.7-0.5-1.4-0.5-2.1c-0.1-1,0.3-2,0.9-2.8c0.6-0.7,1.4-1.2,2.4-1.5c1.1-0.4,2.2-0.6,3.4-0.6c1.3-0.1,2.6-0.1,4-0.1L174.8,33.3
	z M174.2,35.5c-0.9,0-1.8,0-2.7,0.1c-0.8,0.1-1.7,0.2-2.5,0.5c-0.7,0.2-1.3,0.5-1.8,1c-0.5,0.4-0.7,1.1-0.7,1.7
	c0,0.5,0.1,0.9,0.3,1.3c0.2,0.4,0.5,0.7,0.8,0.9s0.7,0.4,1.1,0.5c0.4,0.1,0.8,0.1,1.3,0.1c0.7,0,1.4-0.1,2-0.4
	c0.6-0.3,1.1-0.6,1.5-1.1s0.7-1,0.9-1.6s0.3-1.2,0.3-1.9v-1.1H174.2z"/>
<path d="M183.3,34.8h0.1l6.9-6.8h3.1l-7.6,6.8l8.3,8.2H191l-7.6-7.9h-0.1V43h-2.2V18.8h2.2L183.3,34.8L183.3,34.8z"/>
<path d="M209.6,35.1v0.5c0,0.2,0,0.4,0,0.5h-12.4c0,0.7,0.2,1.4,0.4,2.1c0.3,0.6,0.7,1.2,1.1,1.7c0.5,0.5,1.1,0.9,1.7,1.2
	c1.7,0.7,3.5,0.6,5.1-0.3c0.7-0.4,1.4-1,1.9-1.8l1.6,1.3c-0.8,1-1.8,1.9-3,2.4c-1.1,0.5-2.3,0.7-3.5,0.7c-1.1,0-2.1-0.2-3.1-0.6
	c-0.9-0.4-1.8-0.9-2.4-1.7c-0.7-0.7-1.2-1.6-1.6-2.5c-0.4-1-0.6-2.1-0.6-3.1c0-1.1,0.2-2.1,0.6-3.1c0.4-0.9,0.9-1.8,1.6-2.5
	c0.7-0.7,1.5-1.3,2.4-1.6c0.9-0.4,2-0.6,3-0.6c1.1,0,2.1,0.2,3.1,0.6c0.9,0.4,1.6,0.9,2.2,1.6c0.6,0.7,1.1,1.5,1.4,2.3
	C209.5,33.1,209.6,34.1,209.6,35.1z M207.4,34.4c0-1.3-0.5-2.5-1.4-3.5s-2.3-1.5-3.6-1.4c-0.7,0-1.4,0.1-2,0.4s-1.2,0.6-1.6,1.1
	c-0.5,0.5-0.8,1-1.1,1.6c-0.3,0.6-0.4,1.2-0.5,1.8H207.4z"/>
<path d="M213.1,29.8c0-0.7,0-1.2-0.1-1.7h2.1c0,0.4,0.1,0.9,0.1,1.3c0,0.5,0,0.9,0,1.2h0.1c0.4-0.9,1.1-1.6,1.9-2.1
	c0.9-0.5,1.9-0.8,2.9-0.8c0.3,0,0.5,0,0.8,0c0.2,0,0.5,0.1,0.7,0.1l-0.3,2.1c-0.2-0.1-0.4-0.1-0.6-0.1c-0.3,0-0.6-0.1-0.9-0.1
	c-0.6,0-1.1,0.1-1.7,0.3c-0.5,0.2-1,0.6-1.4,1c-0.4,0.5-0.8,1.1-1,1.8c-0.3,0.8-0.4,1.7-0.4,2.6V43h-2.2V31.3
	C213.1,30.9,213.2,30.4,213.1,29.8z"/>
<linearGradient id="SVGID_1_" gradientUnits="userSpaceOnUse" x1="8" y1="731.6437" x2="67.2888" y2="731.6437" gradientTransform="matrix(1 0 0 1 0 -700)">
	<stop  offset="0" style="stop-color:#00E1FF"/>
	<stop  offset="2.000000e-02" style="stop-color:#00C6F2"/>
	<stop  offset="5.000000e-02" style="stop-color:#00ABE5"/>
	<stop  offset="9.000000e-02" style="stop-color:#0095DB"/>
	<stop  offset="0.12" style="stop-color:#0084D3"/>
	<stop  offset="0.17" style="stop-color:#0079CD"/>
	<stop  offset="0.24" style="stop-color:#0072CA"/>
	<stop  offset="0.43" style="stop-color:#0070C9"/>
	<stop  offset="1" style="stop-color:#2A3E4E"/>
</linearGradient>
<path class="st0" d="M66.3,12.1l-4.4-1.2c-0.5-0.1-0.8-0.5-0.9-1l-0.1-1.4c-0.1-0.5-0.4-0.9-0.9-1L46.6,3.8c-0.4-0.1-0.9,0-1.2,0.4
	l-1,1.3c-0.3,0.4-0.8,0.5-1.2,0.4L21.3,0c-0.8-0.2-1.5,0.2-1.8,1L8,35.2l1.9,7.1l43.2,20.9c0,0,0.5,0.5,0.8-0.4l13.3-49
	C67.5,13.1,67,12.3,66.3,12.1L66.3,12.1z"/>
<linearGradient id="SVGID_2_" gradientUnits="userSpaceOnUse" x1="17.1194" y1="712.4506" x2="44.7294" y2="740.0606" gradientTransform="matrix(1 0 0 1 0 -700)">
	<stop  offset="0" style="stop-color:#0070C9"/>
	<stop  offset="1" style="stop-color:#2A3E4E"/>
</linearGradient>
<path class="st1" d="M53.3,63c-0.2,0-0.3-0.1-0.5-0.1c-0.2-0.1-38.5-24-38.5-24L17,8.2L18.5,4l5.3,1.6c0,0,0.6,0.2,0.7-0.2
	c0-0.2,0.6-1.5,0.6-1.5s0.2-0.6,0.7-0.6s13.1,3.9,13.4,4.1s0.6,0.4,0.9,1.4c0.1,0.6,0.3,1.3,0.6,1.8c0.3,0.4,5.6,2.1,5.6,2.1
	s1,0.4,1.2,1C47.8,14.7,53.3,63,53.3,63z"/>
<linearGradient id="SVGID_3_" gradientUnits="userSpaceOnUse" x1="-3.905183e-02" y1="733.225" x2="53.4439" y2="733.225" gradientTransform="matrix(1 0 0 1 0 -700)">
	<stop  offset="0" style="stop-color:#888888"/>
	<stop  offset="0.2" style="stop-color:#858585;stop-opacity:0.99"/>
	<stop  offset="0.4" style="stop-color:#7A7A7A;stop-opacity:0.95"/>
	<stop  offset="0.6" style="stop-color:#696969;stop-opacity:0.89"/>
	<stop  offset="0.8" style="stop-color:#525252;stop-opacity:0.81"/>
	<stop  offset="1" style="stop-color:#333333;stop-opacity:0.7"/>
	<stop  offset="1" style="stop-color:#333333;stop-opacity:0.7"/>
</linearGradient>
<path class="st2" d="M53.4,63.3c-0.1,0-0.2,0-0.3-0.1c-0.2-0.1-43.3-21-43.3-21L0.1,4.5C-0.1,4.1,0,3.7,0.3,3.4
	C0.9,3,1.2,3.2,1.2,3.2h0.2L19.2,9c0,0,0.6,0.2,0.7-0.2c0-0.2,0.6-1.5,0.6-1.5s0.2-0.6,0.7-0.6s13.1,3.9,13.4,4.1s0.6,0.4,0.9,1.4
	c0.1,0.6,0.3,1.3,0.6,1.8c0.3,0.4,5.6,2.1,5.6,2.1s1,0.4,1.2,1C43.1,18,53.4,63.3,53.4,63.3z"/>
<linearGradient id="SVGID_4_" gradientUnits="userSpaceOnUse" x1="4.4744" y1="707.7056" x2="37.7544" y2="740.9857" gradientTransform="matrix(1 0 0 1 0 -700)">
	<stop  offset="0" style="stop-color:#53EDC0"/>
	<stop  offset="0.55" style="stop-color:#31CEC5"/>
	<stop  offset="1" style="stop-color:#12ADEB"/>
</linearGradient>
<path class="st3" d="M53.4,63.3c-0.1,0-0.2,0-0.3-0.1c-0.2-0.1-43.3-21-43.3-21L0.1,4.5C-0.1,4.1,0,3.7,0.3,3.4
	C0.9,3,1.2,3.2,1.2,3.2h0.2L19.2,9c0,0,0.6,0.2,0.7-0.2c0-0.2,0.6-1.5,0.6-1.5s0.2-0.6,0.7-0.6s13.1,3.9,13.4,4.1s0.6,0.4,0.9,1.4
	c0.1,0.6,0.3,1.3,0.6,1.8c0.3,0.4,5.6,2.1,5.6,2.1s1,0.4,1.2,1C43.1,18,53.4,63.3,53.4,63.3z"/>
<path class="st4" d="M44.2,58.2c-0.8-1.4-1.6-2.8-2.5-4.2c-0.7-1.2-1.4-2.3-2.1-3.5s-1.6-2.6-2.4-3.8s-1.5-2.3-2.2-3.4
	c-0.4-0.5-0.7-1.2-1.5-1.1c-0.1,0-0.3-0.1-0.3-0.2l-0.9-1.5l3.6-2l1.7,2.8c0,0,1.6-0.2,1.6-0.9c0-1.7,1.8-1.1,1.8-1.1l6.1-3.4
	L45.4,28l-8.3,4.6c0,0-0.4,1.8-1.9,1c-0.6-0.3-1.6,0.9-1.6,0.9l1.7,2.8l-3.6,2l-3.4-5.8c-0.3-0.5,0.1-0.2-0.1-0.7
	c-0.8-1.3-0.9-2.9-0.2-4.2c0.3-0.8,1-1.4,1.8-1.5c1.5-0.2,3.1-0.1,4.6,0.2c1.5,0.2,2.9,0.6,4.4,0.9c0.2,0,0.4,0,0.6,0l0.1-0.3
	c-0.6-0.4-1.1-0.9-1.7-1.2c-1.9-1.1-4-2-6.1-2.6c-3.6-1-7.5-0.7-10.9,0.9c-0.8,0.4-1.6,0.8-2.4,1.4c-0.2,0.2-0.3,0.4-0.4,0.6
	c-0.2,1-0.7,1.9-1.4,2.6c-0.9,0.8-2,1.1-3.1,0.9c-0.4,0-0.7,0.1-1.1,0.3c-0.4,0.2-0.8,0.4-1.2,0.6c-0.5,0.2-0.7,0.6-0.6,1.1v0.1
	c0.5,1.5,1.3,2.8,2.3,3.9c0.6,0.7,0.8,0.7,1.6,0.2c0.5-0.2,0.9-0.5,1.3-0.8c0.3-0.4,0.6-0.8,0.9-1.2c1.4-2,4-2.6,6.1-1.5
	c0.7,0.4,1.3,0.9,1.9,1.5c0.6,0.7,0.3-0.2,0.8,0.6s2.1,3.5,3.3,5.6l-10.1,5.6l1.5,0.7l9.4-5.2l0.9,1.6c0.1,0.1,0.1,0.3,0,0.4
	c-0.4,0.4-0.2,0.8,0,1.1c1.1,2.1,2.2,4.1,3.3,6.2c0.6,1.1,1.9,3.3,1.9,3.3l9.4,4.5C44.8,59.3,44.4,58.6,44.2,58.2z"/>
<path d="M285.8,43.5h-2.3V23.9l-4.1,3.4l-1.4-1.6l5.7-4.7h2V43.5z"/>
<path d="M299.3,31.6c1.1,0.4,2.1,1,2.9,2s1.1,2.2,1.1,3.7c0,1-0.2,1.8-0.6,2.5s-0.9,1.4-1.5,2c-0.6,0.5-1.4,1-2.2,1.2
	c-0.9,0.3-1.7,0.5-2.6,0.5c-0.9,0-1.8-0.1-2.6-0.5c-0.9-0.3-1.6-0.7-2.2-1.2c-0.6-0.5-1.1-1.1-1.5-2c-0.4-0.8-0.6-1.6-0.6-2.5
	c0-0.7,0.1-1.4,0.3-2c0.2-0.6,0.5-1.1,0.8-1.6c0.4-0.5,0.8-0.9,1.3-1.2c0.5-0.4,1-0.6,1.6-0.8v-0.1c-0.5-0.1-0.9-0.4-1.3-0.7
	c-0.4-0.3-0.8-0.7-1-1.1c-0.3-0.5-0.5-0.9-0.6-1.4c-0.1-0.5-0.2-1-0.2-1.6c0-0.8,0.1-1.6,0.5-2.3c0.3-0.7,0.8-1.3,1.3-1.8
	c0.5-0.5,1.2-0.8,1.9-1.1c0.7-0.2,1.5-0.4,2.3-0.4c0.8,0,1.6,0.1,2.3,0.4s1.4,0.6,1.9,1.1c0.6,0.5,1,1.1,1.3,1.8
	c0.3,0.7,0.5,1.5,0.5,2.3c0,0.6-0.1,1.1-0.2,1.6c-0.1,0.5-0.4,1-0.6,1.4c-0.3,0.4-0.6,0.8-1,1.1c-0.4,0.3-0.9,0.5-1.3,0.7
	L299.3,31.6L299.3,31.6z M291.9,37.1c0,0.7,0.1,1.2,0.4,1.8c0.2,0.5,0.6,1,1,1.5s0.9,0.7,1.5,1s1.2,0.4,1.9,0.4
	c0.7,0,1.4-0.1,1.9-0.4s1-0.5,1.5-1c0.4-0.4,0.8-0.9,0.9-1.5c0.2-0.5,0.4-1.1,0.4-1.8c0-0.6-0.1-1.2-0.4-1.8c-0.2-0.5-0.5-1-0.9-1.4
	c-0.4-0.4-0.9-0.7-1.5-0.9c-0.6-0.2-1.2-0.4-1.9-0.4c-0.7,0-1.4,0.1-1.9,0.4c-0.6,0.2-1.1,0.5-1.5,0.9c-0.4,0.4-0.8,0.9-1,1.4
	C292,35.9,291.9,36.5,291.9,37.1z M292.6,26.9c0,0.6,0.1,1.1,0.3,1.6c0.2,0.4,0.5,0.8,0.9,1.2s0.8,0.6,1.2,0.8
	c0.4,0.2,1,0.3,1.5,0.3s1-0.1,1.5-0.3c0.4-0.2,0.9-0.4,1.2-0.8s0.6-0.8,0.9-1.2c0.2-0.5,0.3-1,0.3-1.6c0-0.5-0.1-1.1-0.3-1.6
	c-0.2-0.5-0.5-0.9-0.9-1.2c-0.4-0.3-0.8-0.6-1.2-0.8c-0.5-0.2-1-0.3-1.6-0.3c-0.5,0-1.1,0.1-1.5,0.3c-0.5,0.2-0.9,0.5-1.2,0.8
	c-0.4,0.4-0.6,0.8-0.9,1.2C292.7,25.8,292.6,26.4,292.6,26.9z"/>
</svg>
